<?xml version="1.0" encoding="UTF-8" standalone="no"?>
<!-- Created with Inkscape (http://www.inkscape.org/) -->

<svg
   version="1.1"
   id="svg2"
   width="764.56"
   height="153.16"
   viewBox="0 0 764.56 153.16"
   sodipodi:docname="uvalogo_k_NL_Faculteit der Natuurwetenschappen.eps"
   xmlns:inkscape="http://www.inkscape.org/namespaces/inkscape"
   xmlns:sodipodi="http://sodipodi.sourceforge.net/DTD/sodipodi-0.dtd"
   xmlns="http://www.w3.org/2000/svg"
   xmlns:svg="http://www.w3.org/2000/svg">
  <defs
     id="defs6" />
  <sodipodi:namedview
     id="namedview4"
     pagecolor="#ffffff"
     bordercolor="#000000"
     borderopacity="0.25"
     inkscape:showpageshadow="2"
     inkscape:pageopacity="0.0"
     inkscape:pagecheckerboard="0"
     inkscape:deskcolor="#d1d1d1" />
  <g
     id="g8"
     inkscape:groupmode="layer"
     inkscape:label="ink_ext_XXXXXX"
     transform="matrix(1.3333333,0,0,-1.3333333,0,153.16)">
    <g
       id="g10"
       transform="scale(0.1)">
      <g
         id="g12"
         transform="scale(10)">
        <text
           xml:space="preserve"
           transform="matrix(1,0,0,-1,70.5098,44.2434)"
           style="font-variant:normal;font-weight:normal;font-size:30px;font-family:Stempel-Garamond;-inkscape-font-specification:Stempel-Garamond-Regular;writing-mode:lr-tb;fill:#100f0d;fill-opacity:1;fill-rule:nonzero;stroke:none"
           id="text18"><tspan
             x="0 18.33 31.65 44.970001 61.650002 69.989998 79.980003 93.300003 101.64 111.63 119.13 135.81 149.13 160.8 168.3 194.95508 208.27509 218.26508 234.94508 251.62508 263.29507 286.63507 299.95508 309.94507 323.26508 339.94507 351.61508 364.93509 381.61508 394.93509 411.61508 428.29507 441.61508 458.29507 465.79507"
             y="0"
             sodipodi:role="line"
             id="tspan14">Faculteit der Natuurwetenschappen, </tspan><tspan
             x="0 30 38.34 50.009998 66.690002 83.370003 100.05 116.73 130.05 137.55 150.87 167.55 175.05 186.72 203.42227 213.41226 230.09227 241.76227 266.75226 280.07227 290.06226 298.40225 311.72226"
             y="36"
             sodipodi:role="line"
             id="tspan16">Wiskunde en Informatica</tspan></text>
      </g>
      <path
         d="M 0,580.828 H 567.828 V 1148.66 H 0 V 580.828"
         style="fill:#1d1b19;fill-opacity:1;fill-rule:nonzero;stroke:none"
         id="path20" />
      <path
         d="m 240.746,987.16 42.832,42.83 42.824,-42.83 23.7,23.7 -42.809,42.85 42.809,42.81 -23.7,23.7 -42.824,-42.81 -42.832,42.81 -23.695,-23.7 42.824,-42.81 -42.824,-42.85 23.695,-23.7"
         style="fill:#ffffff;fill-opacity:1;fill-rule:nonzero;stroke:none"
         id="path22" />
      <path
         d="m 240.746,829.547 42.832,42.828 42.824,-42.828 23.7,23.699 -42.809,42.852 42.809,42.804 -23.7,23.7 -42.824,-42.809 -42.832,42.809 -23.695,-23.7 42.824,-42.804 -42.824,-42.852 23.695,-23.699"
         style="fill:#ffffff;fill-opacity:1;fill-rule:nonzero;stroke:none"
         id="path24" />
      <path
         d="m 240.746,610.188 42.832,42.828 42.824,-42.828 23.7,23.695 -42.809,42.851 42.809,42.809 -23.7,23.695 -42.824,-42.804 -42.832,42.804 -23.695,-23.695 42.824,-42.809 -42.824,-42.851 23.695,-23.695"
         style="fill:#ffffff;fill-opacity:1;fill-rule:nonzero;stroke:none"
         id="path26" />
      <path
         d="m 412.48,987.785 -49.281,-2.262 c 0,0 7.031,-52.019 4.071,-104.589 -2.868,-50.176 -10.782,-59.012 -10.782,-59.012 -11.136,-20.895 -45.609,-25.981 -63.218,-27.344 -17.692,-1.383 -25.582,-0.422 -25.582,-0.422 0,0 -50.864,1.965 -62.258,25.641 -6.492,13.48 -7.871,39.965 -7.871,39.965 0,0 -0.305,124.097 -0.746,126.906 -0.301,1.504 -10.297,-1.086 -21.875,-1.02 -9.438,0.016 -23.235,0.637 -23.235,0.637 l 4.086,-91.164 -0.562,-53.871 c 0,0 0,-28.902 7.414,-40.441 12.519,-19.571 26.461,-26.563 34.355,-30.27 7.891,-3.746 20.453,-7.469 34.395,-10.254 13.922,-2.828 37.195,-4.246 67.828,3.606 30.668,7.914 44.23,21.816 44.23,21.816 l 23.258,21.832 -0.082,-51.625 48.816,14.367 c 0,0 -6.449,40.903 -6.367,110.614 0.059,69.73 3.406,106.89 3.406,106.89"
         style="fill:#ffffff;fill-opacity:1;fill-rule:nonzero;stroke:none"
         id="path28" />
      <path
         d="m 5704.16,888.59 c 0,16.187 -3.2,126.16 -3.2,142.91 0,19.13 0,27.67 17.02,27.67 3.52,0 6.77,-0.61 8.85,-0.61 1.15,0 2.01,1.49 2.01,3.53 v 4.68 c 0,0.93 -0.86,2.05 -5.25,2.05 -7.35,0 -15.07,-0.84 -22.36,-0.84 -9.42,0 -18.83,0.84 -27.96,0.84 l -67.61,-160.535 h -1.5 l -63.49,152.015 c -1.5,3.81 -3.52,8.52 -5.6,8.52 -7.36,0 -15,-1.44 -22.28,-1.44 -11.83,0 -22.42,1.44 -33.59,1.44 -1.47,0 -2.39,-1.12 -2.39,-2.62 v -3.81 c 0,-1.78 0.64,-3.22 1.47,-3.22 26.56,0 34.15,-6.48 34.15,-22.06 0,-10.6 -5.01,-118.813 -5.01,-133.215 0,-25.602 -3.51,-32.95 -27.67,-32.95 -3.5,0 -5.81,-0.285 -5.81,-2.945 v -4.391 c 0,-1.476 0.89,-2.382 1.73,-2.382 4.08,0 20.56,1.503 37.32,1.503 15.89,0 30.33,-1.503 34.4,-1.503 1.22,0 1.48,3.566 1.48,4.726 0,3.527 -0.26,4.992 -2.03,4.992 -25.91,0 -25.91,7.348 -25.91,19.989 0,14.425 3.58,103.203 3.58,126.446 0,3.26 0,9.13 1.16,9.13 1.18,0 2.92,-3.53 4.99,-8.51 l 55.57,-135.297 c 2.94,-7.031 5.6,-14.082 7.37,-21.476 0.9,-4.086 2.04,-5.571 3.53,-5.571 1.42,0 2.34,0.883 2.66,1.742 l 27.62,72.637 c 9.98,26.184 31.44,75.285 47.9,109.095 0,0 -0.24,0 0.92,-0.26 1.18,-50.3 2.28,-118.847 2.28,-150.577 0,-10.297 -5.24,-17.348 -11.15,-17.348 -13.48,0 -16.13,-0.882 -16.13,-3.828 v -2.965 c 0,-1.742 0.28,-2.925 2.32,-2.925 12.69,0 25.33,1.503 37.67,1.503 12.37,0 24.68,-1.503 40.3,-1.503 0.88,0 2.67,2.925 2.67,6.472 0,2.645 -1.55,3.246 -13.24,3.246 -12.65,0 -16.79,9.434 -16.79,17.645 m -235.08,-24.113 c 0,3.222 -0.56,6.785 -3.83,6.785 -17.02,0 -22.31,6.172 -27.36,18.511 l -73.82,186.157 c -7.31,-2.36 -13.54,-9.16 -19.41,-14.14 l -58.22,-169.372 c -5.56,-16.168 -7.62,-19.109 -22.91,-20.574 -7.03,-0.582 -9.67,-1.184 -9.67,-2.66 v -3.211 c 0,-3.84 0,-4.746 5.85,-4.746 8.81,0 21.17,1.503 29.1,1.503 7.96,0 29.39,-1.503 36.18,-1.503 2.02,0 2.34,1.203 2.34,4.144 0,3.813 -0.57,5.574 -3.2,5.574 -7.95,0 -21.78,2.078 -21.78,11.758 0,4.707 1.14,11.481 3.55,19.129 l 12.88,41.77 h 70.33 l 18.79,-47.379 c 4.15,-10.278 5.31,-15.004 5.31,-17.305 0,-7.074 -14.42,-7.973 -18.85,-7.973 -4.09,0 -5.85,-1.465 -5.85,-4.668 0,-4.144 0.31,-5.05 4.69,-5.05 11.76,0.906 23.52,1.503 35.31,1.503 11.46,0 30.34,-1.503 35.02,-1.503 3.51,0 5.55,0 5.55,3.25 m -85.27,90.558 h -61.11 l 27.83,84.095 h 0.62 z m -117.25,12.082 c 0,54.103 -37.38,89.683 -77.35,100.583 -14.43,3.81 -29.69,5.26 -45.91,5.26 -25.28,0 -72.26,-3.22 -92.01,-7.35 -5,-1.16 -5,-2.04 -5,-3.8 0,-1.49 0,-5.87 1.18,-5.87 5.6,0 14.98,1.16 18.5,1.16 10.92,0 13.23,-11.46 13.23,-22.64 V 893.297 c 0,-9.375 -2.91,-14.102 -7.32,-17.024 -5.33,-3.546 -12.92,-4.128 -22.35,-5.328 -1.18,0 -2.65,-2.925 -2.65,-4.972 0,-2.078 0.31,-4.746 1.47,-4.746 14.72,0.343 29.4,1.203 44.13,1.203 14.64,0 29.34,-1.203 57.28,-1.203 55.85,0 116.8,32.976 116.8,105.89 m -31.51,-1.461 c 0,-61.5 -42.91,-94.711 -83.2,-94.711 -12.88,0 -46.11,0 -46.11,32.348 v 139.387 c 0,18.85 11.44,20.59 35.54,20.59 12.61,0 31.17,-1.46 45.27,-7.63 20.31,-11.76 48.5,-37.62 48.5,-89.984 M 5036.17,864.172 v 5.609 l -1.73,1.746 c -17.68,0.879 -24.45,3.801 -34.72,19.407 l -32.37,49.437 c -2.9,4.692 -14.98,26.164 -26.43,28.813 v 0.554 c 22.94,3.571 47.35,21.5 47.35,48.262 0,30.82 -29.42,50.84 -59.43,50.84 -13.51,0 -26.73,-0.86 -40.27,-0.86 -17.03,0 -34.45,0.86 -51.52,0.86 -1.12,0 -2.02,-2.62 -2.02,-4.11 0,-2.36 0.29,-5.56 2.02,-5.56 h 12.08 c 18.52,0 19.17,-7.4 19.17,-22.06 V 895.078 c 0,-20.308 -5.37,-23.254 -25.65,-24.133 -5.88,-0.304 -7.03,-0.882 -7.03,-3.507 0,-2.383 0.61,-6.211 2.37,-6.211 4.15,0 36.75,1.503 41.72,1.503 12.69,0 25.27,-1.503 40.57,-1.503 4.48,0 5.35,1.804 5.35,7.394 0,2.324 -5.07,2.324 -16.17,2.324 -14.72,0 -14.72,9.996 -14.72,20.571 v 72.054 c 4.39,0.621 7.93,0.621 10.24,0.621 19.43,0 30.62,-18.55 49.73,-52.382 17.36,-30.868 30.59,-50.582 37.37,-50.582 7.03,0 14.06,0.906 21.13,0.906 4.41,0 13.53,-0.906 19.75,-0.906 1.16,0 3.21,0.343 3.21,2.945 m -130.27,109.68 c -3.79,0 -7.36,0.316 -11.16,0.617 v 71.461 c 0,8.81 0.56,13.52 20.59,13.52 25.87,0 43.52,-16.79 43.52,-42.63 0,-34.718 -29.46,-42.968 -52.95,-42.968 m -83.98,-74.961 c 0.57,1.476 1.43,3.8 1.43,4.707 0,2.039 -4.97,2.922 -8.84,2.922 -3.2,-7.372 -12.26,-25.301 -18.77,-29.086 -7.37,-4.411 -18.23,-4.727 -33.81,-4.727 h -15.89 c -20.29,0 -35.9,0.582 -35.9,21.734 v 70.036 c 0,2.058 0,3.48 4.14,3.48 l 41.71,-0.859 c 8.84,-0.278 12.37,-2.364 13.89,-6.774 1.45,-4.105 1.45,-9.711 2.9,-17.605 0.61,-2.965 2.67,-3.848 5.01,-3.848 1.77,0 4.67,1.766 4.67,3.547 0,4.988 -1.72,13.523 -1.72,29.406 0,9.676 1.72,23.199 1.72,29.386 0,1.46 -1.4,1.81 -3.45,1.81 -3.26,0 -4.16,-0.63 -4.76,-2.37 -4.37,-15.623 -9.42,-21.197 -27.06,-21.795 l -34.64,-1.164 c -0.62,0 -2.41,1.485 -2.41,2.344 v 53.255 c 0,22.33 5.32,25.88 21.78,25.88 h 30.29 c 16.46,0 29.39,-3.25 31.13,-22.06 l 0.9,-9.15 c 0.3,-3.49 5.01,-3.23 7.35,-3.23 1.46,0 2.08,1.18 2.08,2.36 v 35.88 c 0,3.23 -0.31,5.85 -2.62,5.85 h -62.08 c -11.74,0 -23.51,-1.44 -35.26,-1.44 -12.37,0 -25.62,1.44 -37.35,1.44 -10.3,0 -15.27,-0.26 -15.27,-2.91 v -3.24 c 0,-1.14 0,-2.62 1.14,-2.62 17.05,0 31.47,-2.11 31.47,-21.18 V 901.832 c 0,-27.062 -7.07,-29.707 -32.61,-30.887 -1.22,0 -1.8,-2.648 -1.8,-4.992 0,-1.801 0.87,-4.726 1.8,-4.726 14.98,0 39.68,1.503 49.38,1.503 42.6,0 73.78,-1.503 105.54,-1.503 3.85,0 5.3,0 7.64,7.957 z m -187.86,134.769 c 0.59,21.2 6.48,45.28 6.48,47.64 0,2.66 -6.71,2.66 -8.82,2.66 -7.36,-9.11 -13.25,-15.3 -33.83,-15.3 h -109.41 c -12.61,0 -15.53,0 -24.95,12.64 -4.13,0 -8.26,0 -8.26,-1.14 0,-23.26 -3.48,-50.6 -3.48,-55.61 0,-1.75 2.56,-2.93 6.73,-2.93 1.76,0 2.96,0.89 3.51,2.65 5.57,18.83 9.15,32.93 31.5,32.93 h 39.41 l 0.89,-13.52 V 904.273 c 0,-24.378 -1.19,-33.507 -27.95,-33.507 h -3.51 l -2.97,-1.164 c -0.88,-0.602 -1.18,-2.364 -1.18,-3.266 0,-1.742 0.55,-3.203 1.18,-5.289 7.01,0 32.32,1.504 48.53,1.504 20.58,0 34.97,-1.504 40.82,-1.504 4.72,0 6.23,0 6.23,3.547 v 4.707 l -1.78,1.465 c -18.25,0 -32.94,0 -32.94,21.769 V 1057.2 h 40.57 c 12.08,0 19.11,-0.3 20.33,-15.26 l 1.16,-14.74 c 0,-1.47 6.75,-2.93 9.4,-2.93 1.42,0 2.34,6.19 2.34,9.39 m -293.29,-5.1 c 0,18.85 15.59,32.97 35.56,32.97 20.89,0 35.02,-12.71 37.06,-32.39 0.3,-2.93 0.86,-4.67 4.68,-4.67 4.15,0 7.09,0.56 7.09,2.04 v 1.45 l -2.04,36.77 c -10.04,4.43 -25.9,8.22 -37.1,8.22 -39.7,0 -69.68,-20.56 -69.68,-57.36 0,-22.871 8.53,-34.649 29.76,-47.313 l 37.35,-22.054 c 15.26,-9.118 26.11,-20.571 26.11,-39.703 0,-19.969 -19.65,-37.899 -40.25,-37.899 -23.51,0 -38.83,12.918 -45.62,35.274 -0.57,2.062 -1.39,2.625 -2.34,2.625 -1.77,0 -7.66,0 -7.66,-1.743 l 3.52,-27.644 c 0.9,-6.473 1.79,-10.293 4.14,-11.457 11.15,-4.731 31.18,-8.535 43.24,-8.535 36.72,0 72.94,20.836 72.94,60.859 0,36.777 -25.29,50.277 -54.41,65.582 -29.41,15.586 -42.35,23.798 -42.35,44.978 m -42.8,-167.333 c 0.88,0 2.58,2.925 2.58,6.472 0,2.645 -1.42,3.246 -13.18,3.246 -12.65,0 -16.77,9.434 -16.77,17.645 0,16.187 -3.27,126.16 -3.27,142.91 0,19.13 0,27.67 17.09,27.67 3.55,0 6.75,-0.61 8.82,-0.61 1.2,0 2.08,1.49 2.08,3.53 v 4.68 c 0,0.93 -0.88,2.05 -5.29,2.05 -7.35,0 -14.96,-0.84 -22.36,-0.84 -9.41,0 -18.79,0.84 -27.92,0.84 l -67.73,-160.535 h -1.4 L 4107.1,1060.3 c -1.45,3.81 -3.49,8.52 -5.57,8.52 -7.37,0 -15.03,-1.44 -22.35,-1.44 -11.74,0 -22.37,1.44 -33.5,1.44 -1.5,0 -2.4,-1.12 -2.4,-2.62 v -3.81 c 0,-1.78 0.6,-3.22 1.52,-3.22 26.42,0 34.02,-6.48 34.02,-22.06 0,-10.6 -4.94,-118.813 -4.94,-133.215 0,-25.602 -3.54,-32.95 -27.64,-32.95 -3.53,0 -5.91,-0.285 -5.91,-2.945 v -4.391 c 0,-1.476 0.92,-2.382 1.79,-2.382 4.12,0 20.62,1.503 37.35,1.503 15.87,0 30.25,-1.503 34.4,-1.503 1.2,0 1.46,3.566 1.46,4.726 0,3.527 -0.26,4.992 -2.02,4.992 -25.9,0 -25.9,7.348 -25.9,19.989 0,14.425 3.49,103.203 3.49,126.446 0,3.26 0,9.13 1.26,9.13 1.12,0 2.86,-3.53 4.94,-8.51 l 55.57,-135.297 c 2.98,-7.031 5.63,-14.082 7.4,-21.476 0.86,-4.086 2.06,-5.571 3.48,-5.571 1.48,0 2.41,0.883 2.62,1.742 l 27.71,72.637 c 10,26.184 31.45,75.285 47.92,109.095 0,0 -0.31,0 0.85,-0.26 1.23,-50.3 2.37,-118.847 2.37,-150.577 0,-10.297 -5.27,-17.348 -11.15,-17.348 -13.53,0 -16.18,-0.882 -16.18,-3.828 v -2.965 c 0,-1.742 0.27,-2.925 2.35,-2.925 12.64,0 25.28,1.503 37.64,1.503 12.36,0 24.66,-1.503 40.29,-1.503 m -269.53,3.828 c 0,4.328 -0.73,9.035 -5.09,9.035 -22.72,0 -29.8,8.25 -36.51,24.715 l -98.49,248.415 c -9.84,-3.1 -18.01,-12.15 -25.86,-18.83 l -77.65,-226.038 c -7.47,-21.575 -10.25,-25.539 -30.69,-27.461 -9.45,-0.801 -12.96,-1.582 -12.96,-3.547 v -4.324 c 0,-5.114 0,-6.274 7.87,-6.274 11.76,0 28.31,1.984 38.83,1.984 10.61,0 39.3,-1.984 48.29,-1.984 2.72,0 3.17,1.563 3.17,5.531 0,5.067 -0.83,7.411 -4.31,7.411 -10.66,0 -29.05,2.746 -29.05,15.703 0,6.289 1.53,15.304 4.65,25.523 l 17.27,55.727 h 93.81 l 25.1,-63.203 c 5.57,-13.7 7.13,-20.028 7.13,-23.153 0,-9.394 -19.21,-10.597 -25.09,-10.597 -5.58,0 -7.92,-1.961 -7.92,-6.25 0,-5.532 0.43,-6.692 6.29,-6.692 15.69,1.16 31.41,1.984 47.04,1.984 15.38,0 40.44,-1.984 46.77,-1.984 4.71,0 7.4,0 7.4,4.309 m -113.75,120.871 h -81.65 l 37.3,112.284 h 0.82 z m -247.21,75.004 v 5.55 c 0,1.22 -0.28,2.36 -1.77,2.36 -8.29,0 -22.35,-1.46 -35.61,-1.46 -14.43,0 -29.71,1.46 -36.15,1.46 -1.74,0 -2.7,-2.93 -2.7,-4.73 0,-2.02 0.6,-4.94 1.8,-4.94 l 12.62,-0.61 c 9.44,-0.27 16.47,-3.26 16.47,-22.61 V 906.52 h -1.18 c -21.16,21.191 -34.38,36.48 -47.91,52.964 l -89.13,107.576 c -5.25,0.64 -26.76,1.78 -40.27,1.78 -7.32,0 -14.39,-0.58 -23.53,-0.58 -1.49,0 -1.49,-2.35 -1.49,-3.83 0,-2.34 0.34,-5.26 1.49,-5.26 l 15.62,-0.88 c 4.97,-0.33 17.95,-10.88 20.56,-15.91 1.16,-2.35 1.52,-3.81 1.52,-9.7 V 888.871 c 0,-15 -14.17,-17.926 -26.54,-17.926 -3.49,0 -3.83,-1.164 -3.83,-3.808 0,-3.824 0.34,-5.91 2.08,-5.91 13.54,0 20.04,1.503 34.41,1.503 12.37,0 31.14,-1.503 36.79,-1.503 0.86,0 1.14,2.382 1.14,4.726 0,2.363 -0.85,4.992 -2.05,4.992 -25.34,0.879 -28.8,3.825 -28.8,29.106 v 134.979 l 158.75,-181.432 h 7.09 v 170.272 c 0,24.98 0,35.3 20.3,35.3 h 7.67 c 2.04,0 2.65,0.28 2.65,1.76 M 3417.69,871.262 c -17.11,0 -22.37,6.172 -27.36,18.511 l -73.78,186.157 c -7.39,-2.36 -13.56,-9.16 -19.47,-14.14 l -58.16,-169.372 c -5.58,-16.168 -7.68,-19.109 -22.96,-20.574 -7.05,-0.582 -9.7,-1.184 -9.7,-2.66 v -3.211 c 0,-3.84 0,-4.746 5.91,-4.746 8.82,0 21.17,1.503 29.06,1.503 7.96,0 29.45,-1.503 36.22,-1.503 2.06,0 2.3,1.203 2.3,4.144 0,3.813 -0.56,5.574 -3.22,5.574 -7.94,0 -21.76,2.078 -21.76,11.758 0,4.707 1.17,11.481 3.51,19.129 l 12.96,41.77 h 70.27 l 18.81,-47.379 c 4.11,-10.278 5.29,-15.004 5.29,-17.305 0,-7.074 -14.36,-7.973 -18.77,-7.973 -4.15,0 -5.93,-1.465 -5.93,-4.668 0,-4.144 0.36,-5.05 4.73,-5.05 11.72,0.906 23.5,1.503 35.28,1.503 11.43,0 30.26,-1.503 34.95,-1.503 3.54,0 5.59,0 5.59,3.25 0,3.222 -0.54,6.785 -3.77,6.785 m -81.47,83.773 h -61.15 l 27.92,84.095 h 0.56 z m -90.9,104.105 2.62,2.07 v 6.77 l -2.33,1.18 c -2.04,0 -21.45,-1.78 -30.58,-1.78 -11.46,0 -22.92,1.78 -34.38,1.78 v -9.13 l 1.77,-0.89 15.3,-1.48 c 8.5,-0.88 9.97,-3.55 10.28,-8.49 0.26,-3.55 -3.25,-14.43 -7.95,-27.08 l -42.03,-111.426 c -1.17,-3.523 -2.05,-4.707 -2.69,-4.707 -0.84,0 -1.2,0.863 -3.2,5.25 l -19.15,43.828 -33.82,88.245 c -1.13,2.65 -2.6,6.47 -2.6,8.81 0,4.43 5.28,6.2 9.97,6.47 l 13.83,1.16 0.9,8.26 -0.9,0.84 c -13.56,0 -26.79,-1.44 -40.28,-1.44 -6.52,0 -24.47,1.44 -36.74,1.44 l -3.27,-0.56 v -7.67 l 1.78,-1.45 c 8.22,0 19.99,-2.06 23.2,-9.97 l 78.84,-189.986 c 0.54,-1.184 1.17,-2.043 3.79,-2.043 2.06,0 2.69,0.257 4.11,4.41 l 15.04,38.195 c 22.38,56.793 29.11,77.926 57.04,145.274 4.12,10.3 6.46,13.27 12.35,13.54 z m -305.05,-25.3 c 0.64,21.2 6.53,45.28 6.53,47.66 0,2.64 -6.79,2.64 -8.83,2.64 -7.4,-9.11 -13.26,-15.3 -33.86,-15.3 h -109.38 c -12.68,0 -15.58,0 -25.02,12.66 -4.06,0 -8.19,0 -8.19,-1.16 0,-23.26 -3.56,-50.6 -3.56,-55.61 0,-1.75 2.68,-2.93 6.77,-2.93 1.76,0 2.96,0.89 3.56,2.67 5.61,18.81 9.08,32.91 31.45,32.91 h 39.36 l 0.91,-13.52 V 904.477 c 0,-24.403 -1.16,-33.532 -27.93,-33.532 h -3.52 l -2.97,-1.164 c -0.86,-0.578 -1.16,-2.343 -1.16,-3.265 0,-1.743 0.6,-3.203 1.16,-5.289 7.11,0 32.38,1.503 48.58,1.503 20.55,0 34.94,-1.503 40.85,-1.503 4.67,0 6.15,0 6.15,3.546 v 4.707 l -1.75,1.465 c -18.25,0 -32.95,0 -32.95,21.774 v 164.661 h 40.55 c 12.08,0 19.15,-0.3 20.33,-15.26 l 1.18,-14.74 c 0,-1.47 6.79,-2.91 9.44,-2.91 1.46,0 2.3,6.17 2.3,9.37 M 2737.59,861.227 c 2.64,0 7.03,0.343 7.03,2.086 v 5.546 l -1.45,2.086 c -28.78,1.461 -29.69,1.762 -29.69,44.711 v 127.884 c 0,13.54 9.1,14.75 20.9,15.63 l 7.93,0.57 1.15,1.79 v 5.24 l -1.45,2.07 c -11.78,0 -29.42,-1.46 -44.13,-1.46 -19.97,0 -29.37,1.46 -37.3,1.46 -1.8,0 -4.44,-0.28 -4.71,-3.5 l 0.56,-4.75 0.88,-1.42 c 24.72,0 29.71,-4.13 29.71,-20.88 V 897.707 c 0,-22.359 -0.88,-26.762 -21.15,-26.762 -8.56,0 -9.13,-0.601 -9.44,-4.429 0,-2.907 0.31,-4.688 1.49,-5.289 15.3,0 29.67,1.503 43.83,1.503 12.04,0 31.69,-1.503 35.84,-1.503 m -106.14,37.664 c 0.62,1.476 1.49,3.8 1.49,4.707 0,2.039 -5.01,2.922 -8.84,2.922 -3.24,-7.372 -12.32,-25.301 -18.83,-29.086 -7.35,-4.411 -18.25,-4.727 -33.85,-4.727 h -15.85 c -20.29,0 -35.87,0.582 -35.87,21.734 v 70.036 c 0,2.058 0,3.48 4.12,3.48 l 41.79,-0.859 c 8.77,-0.278 12.3,-2.364 13.76,-6.774 1.52,-4.105 1.52,-9.711 2.94,-17.605 0.63,-2.965 2.67,-3.848 5.03,-3.848 1.76,0 4.67,1.766 4.67,3.547 0,4.988 -1.74,13.523 -1.74,29.406 0,9.676 1.74,23.199 1.74,29.386 0,1.46 -1.46,1.81 -3.53,1.81 -3.2,0 -4.06,-0.63 -4.66,-2.37 -4.45,-15.623 -9.44,-21.197 -27.08,-21.795 l -34.7,-1.164 c -0.58,0 -2.34,1.485 -2.34,2.344 v 53.255 c 0,22.33 5.3,25.88 21.75,25.88 h 30.29 c 16.51,0 29.41,-3.25 31.19,-22.06 l 0.84,-9.15 c 0.32,-3.49 5.07,-3.23 7.35,-3.23 1.52,0 2.09,1.18 2.09,2.36 v 35.88 c 0,3.23 -0.31,5.85 -2.65,5.85 h -62.02 c -11.78,0 -23.54,-1.44 -35.31,-1.44 -12.34,0 -25.57,1.44 -37.32,1.44 -10.32,0 -15.33,-0.26 -15.33,-2.91 v -3.24 c 0,-1.14 0,-2.62 1.2,-2.62 17.05,0 31.45,-2.11 31.45,-21.18 V 901.832 c 0,-27.062 -7.07,-29.707 -32.65,-30.887 -1.14,0 -1.8,-2.648 -1.8,-4.992 0,-1.801 0.94,-4.726 1.8,-4.726 15,0 39.73,1.503 49.38,1.503 42.65,0 73.86,-1.503 105.61,-1.503 3.8,0 5.29,0 7.63,7.957 z m -191.68,134.949 c 0.58,21.2 6.47,45.28 6.47,47.66 0,2.64 -6.79,2.64 -8.82,2.64 -7.37,-9.11 -13.26,-15.3 -33.81,-15.3 h -109.42 c -12.61,0 -15.56,0 -25,12.66 -4.08,0 -8.21,0 -8.21,-1.16 0,-23.26 -3.51,-50.6 -3.51,-55.61 0,-1.75 2.65,-2.93 6.71,-2.93 1.81,0 2.97,0.89 3.57,2.67 5.61,18.81 9.07,32.91 31.47,32.91 h 39.41 l 0.86,-13.52 V 904.477 c 0,-24.403 -1.17,-33.532 -27.95,-33.532 h -3.47 l -2.98,-1.164 c -0.86,-0.578 -1.18,-2.343 -1.18,-3.265 0,-1.743 0.6,-3.203 1.18,-5.289 7.07,0 32.35,1.503 48.52,1.503 20.55,0 35,-1.503 40.89,-1.503 4.68,0 6.16,0 6.16,3.546 v 4.707 l -1.76,1.465 c -18.25,0 -32.93,0 -32.93,21.774 v 164.661 h 40.57 c 12.07,0 19.1,-0.3 20.3,-15.26 l 1.15,-14.74 c 0,-1.47 6.79,-2.91 9.43,-2.91 1.5,0 2.35,6.17 2.35,9.37 M 2231.45,861.227 c 2.63,0 7.05,0.343 7.05,2.086 v 5.546 l -1.48,2.086 c -28.8,1.461 -29.71,1.762 -29.71,44.711 v 127.884 c 0,13.54 9.14,14.75 20.88,15.63 l 7.99,0.57 1.16,1.79 v 5.24 l -1.46,2.07 c -11.8,0 -29.41,-1.46 -44.13,-1.46 -20.01,0 -29.41,1.46 -37.34,1.46 -1.77,0 -4.43,-0.28 -4.71,-3.5 l 0.6,-4.75 0.87,-1.42 c 24.69,0 29.68,-4.13 29.68,-20.88 V 897.707 c 0,-22.359 -0.86,-26.762 -21.13,-26.762 -8.55,0 -9.14,-0.601 -9.42,-4.429 0,-2.907 0.28,-4.688 1.47,-5.289 15.28,0 29.68,1.503 43.78,1.503 12.08,0 31.76,-1.503 35.9,-1.503 m -204.99,167.333 c 0,18.85 15.57,32.97 35.56,32.97 20.89,0 35,-12.71 37.06,-32.39 0.32,-2.93 0.88,-4.67 4.71,-4.67 4.12,0 7.07,0.56 7.07,2.04 v 1.45 l -2.06,36.77 c -10,4.43 -25.89,8.22 -37.06,8.22 -39.67,0 -69.68,-20.56 -69.68,-57.36 0,-22.871 8.52,-34.649 29.69,-47.313 l 37.34,-22.054 c 15.31,-9.118 26.17,-20.571 26.17,-39.703 0,-19.969 -19.7,-37.899 -40.29,-37.899 -23.5,0 -38.82,12.918 -45.57,35.274 -0.58,2.062 -1.47,2.625 -2.35,2.625 -1.76,0 -7.63,0 -7.63,-1.743 l 3.51,-27.644 c 0.88,-6.473 1.8,-10.293 4.12,-11.457 11.16,-4.731 31.16,-8.535 43.21,-8.535 36.78,0 72.94,20.836 72.94,60.859 0,36.777 -25.3,50.277 -54.41,65.582 -29.41,15.586 -42.33,23.798 -42.33,44.978 m -39.98,-164.388 v 5.609 l -1.76,1.746 c -17.65,0.879 -24.42,3.801 -34.72,19.407 l -32.35,49.437 c -2.91,4.692 -15.01,26.164 -26.44,28.813 v 0.554 c 22.91,3.571 47.31,21.5 47.31,48.262 0,30.82 -29.38,50.84 -59.35,50.84 -13.56,0 -26.78,-0.86 -40.32,-0.86 -17.06,0 -34.4,0.86 -51.43,0.86 -1.2,0 -2.08,-2.62 -2.08,-4.11 0,-2.36 0.3,-5.56 2.08,-5.56 h 12.04 c 18.53,0 19.09,-7.4 19.09,-22.06 V 895.078 c 0,-20.308 -5.29,-23.254 -25.56,-24.133 -5.91,-0.304 -7.07,-0.882 -7.07,-3.507 0,-2.383 0.58,-6.211 2.36,-6.211 4.09,0 36.74,1.503 41.77,1.503 12.64,0 25.28,-1.503 40.56,-1.503 4.43,0 5.29,1.804 5.29,7.394 0,2.324 -4.98,2.324 -16.16,2.324 -14.73,0 -14.73,9.996 -14.73,20.571 v 72.054 c 4.43,0.621 7.96,0.621 10.32,0.621 19.39,0 30.59,-18.55 49.68,-52.382 17.37,-30.868 30.61,-50.582 37.36,-50.582 7.01,0 14.12,0.906 21.17,0.906 4.41,0 13.52,-0.906 19.7,-0.906 1.18,0 3.24,0.343 3.24,2.945 m -130.29,109.68 c -3.8,0 -7.33,0.316 -11.18,0.617 v 71.461 c 0,8.81 0.6,13.52 20.6,13.52 25.86,0 43.53,-16.79 43.53,-42.63 0,-34.718 -29.41,-42.968 -52.95,-42.968 m -88.22,-74.961 c 0.58,1.476 1.44,3.8 1.44,4.707 0,2.039 -4.98,2.922 -8.81,2.922 -3.25,-7.372 -12.36,-25.301 -18.83,-29.086 -7.33,-4.411 -18.23,-4.727 -33.8,-4.727 h -15.88 c -20.3,0 -35.88,0.582 -35.88,21.734 v 70.036 c 0,2.058 0,3.48 4.11,3.48 l 41.76,-0.859 c 8.82,-0.278 12.35,-2.364 13.83,-6.774 1.48,-4.105 1.48,-9.711 2.94,-17.605 0.58,-2.965 2.63,-3.848 4.99,-3.848 1.78,0 4.73,1.766 4.73,3.547 0,4.988 -1.78,13.523 -1.78,29.406 0,9.676 1.78,23.199 1.78,29.386 0,1.46 -1.51,1.81 -3.57,1.81 -3.22,0 -4.1,-0.63 -4.68,-2.37 -4.41,-15.623 -9.42,-21.197 -27.07,-21.795 l -34.7,-1.164 c -0.55,0 -2.34,1.485 -2.34,2.344 v 53.255 c 0,22.33 5.31,25.88 21.76,25.88 h 30.28 c 16.47,0 29.41,-3.25 31.2,-22.06 l 0.86,-9.15 c 0.3,-3.49 5.01,-3.23 7.33,-3.23 1.5,0 2.08,1.18 2.08,2.36 v 35.88 c 0,3.23 -0.3,5.85 -2.64,5.85 h -62.04 c -11.8,0 -23.52,-1.44 -35.3,-1.44 -12.36,0 -25.58,1.44 -37.34,1.44 -10.32,0 -15.3,-0.26 -15.3,-2.91 v -3.24 c 0,-1.14 0,-2.62 1.18,-2.62 17.03,0 31.45,-2.11 31.45,-21.18 V 901.832 c 0,-27.062 -7.05,-29.707 -32.63,-30.887 -1.18,0 -1.75,-2.648 -1.75,-4.992 0,-1.801 0.86,-4.726 1.75,-4.726 15,0 39.7,1.503 49.38,1.503 42.64,0 73.84,-1.503 105.6,-1.503 3.81,0 5.27,0 7.62,7.957 z m -185.7,160.249 2.65,2.07 v 6.77 l -2.37,1.18 c -2.04,0 -21.43,-1.78 -30.58,-1.78 -11.46,0 -22.92,1.78 -34.4,1.78 v -9.13 l 1.76,-0.89 15.31,-1.48 c 8.53,-0.88 9.99,-3.55 10.28,-8.49 0.29,-3.55 -3.23,-14.43 -7.94,-27.08 l -42.06,-111.426 c -1.17,-3.523 -2.05,-4.707 -2.65,-4.707 -0.86,0 -1.16,0.863 -3.22,5.25 l -19.12,43.828 -33.81,88.245 c -1.16,2.65 -2.65,6.47 -2.65,8.81 0,4.43 5.31,6.2 10,6.47 l 13.84,1.16 0.84,8.26 -0.84,0.84 c -13.56,0 -26.78,-1.44 -40.32,-1.44 -6.45,0 -24.4,1.44 -36.74,1.44 l -3.25,-0.56 v -7.67 l 1.79,-1.45 c 8.23,0 19.99,-2.06 23.21,-9.97 l 78.83,-189.986 c 0.58,-1.184 1.16,-2.043 3.83,-2.043 2.04,0 2.62,0.257 4.08,4.41 l 15.01,38.195 c 22.33,56.793 29.1,77.926 57.03,145.274 4.14,10.3 6.49,13.27 12.36,13.54 z M 1353.21,861.227 c 2.66,0 7.03,0.343 7.03,2.086 v 5.546 l -1.46,2.086 c -28.81,1.461 -29.7,1.762 -29.7,44.711 v 127.884 c 0,13.54 9.12,14.75 20.9,15.63 l 7.93,0.57 1.18,1.79 v 5.24 l -1.5,2.07 c -11.72,0 -29.38,-1.46 -44.09,-1.46 -19.99,0 -29.37,1.46 -37.36,1.46 -1.76,0 -4.4,-0.28 -4.69,-3.5 l 0.58,-4.75 0.89,-1.42 c 24.7,0 29.7,-4.13 29.7,-20.88 V 897.707 c 0,-22.359 -0.88,-26.762 -21.17,-26.762 -8.53,0 -9.11,-0.601 -9.42,-4.429 0,-2.907 0.31,-4.688 1.47,-5.289 15.28,0 29.69,1.503 43.83,1.503 12.04,0 31.75,-1.503 35.88,-1.503 m -101.29,199.703 v 5.55 c 0,1.22 -0.32,2.36 -1.76,2.36 -8.23,0 -22.37,-1.46 -35.6,-1.46 -14.4,0 -29.66,1.46 -36.17,1.46 -1.75,0 -2.63,-2.93 -2.63,-4.73 0,-2.02 0.56,-4.94 1.77,-4.94 l 12.63,-0.61 c 9.42,-0.27 16.47,-3.26 16.47,-22.61 V 906.52 h -1.14 c -21.2,21.191 -34.46,36.48 -47.96,52.964 l -89.1,107.576 c -5.29,0.64 -26.76,1.78 -40.31,1.78 -7.35,0 -14.4,-0.58 -23.53,-0.58 -1.42,0 -1.42,-2.35 -1.42,-3.83 0,-2.34 0.26,-5.26 1.42,-5.26 l 15.6,-0.88 c 4.99,-0.33 17.95,-10.88 20.59,-15.91 1.19,-2.35 1.47,-3.81 1.47,-9.7 V 888.871 c 0,-15 -14.13,-17.926 -26.45,-17.926 -3.54,0 -3.84,-1.164 -3.84,-3.808 0,-3.824 0.3,-5.91 2.06,-5.91 13.52,0 19.98,1.503 34.44,1.503 12.29,0 31.15,-1.503 36.74,-1.503 0.86,0 1.18,2.382 1.18,4.726 0,2.363 -0.9,4.992 -2.07,4.992 -25.29,0.879 -28.82,3.825 -28.82,29.106 v 134.979 l 158.78,-181.432 h 7.11 v 170.272 c 0,24.98 0,35.3 20.25,35.3 h 7.67 c 2.02,0 2.62,0.28 2.62,1.76 m -234.45,63.92 2.36,2.4 v 8.21 l -1.56,2.39 c -12.56,0 -33.356,-2 -49.84,-2 -29.45,0 -37.297,2 -44.328,2 l -1.204,-2.39 V 1128 l 1.582,-3.15 c 34.532,-3.1 34.532,0 34.532,-44.73 V 978.094 c 0,-66.344 -22.754,-100.059 -93.008,-100.059 -67.504,0 -78.504,44.313 -78.504,100.82 V 1092.7 c 0,29.43 11.379,32.15 36.918,32.15 h 4.707 l 1.941,1.62 v 10.16 l -1.16,1.22 c -19.629,0 -39.664,-2 -59.273,-2 -18.43,0 -43.551,2 -53.766,2 -4.324,0 -7.074,-0.4 -7.074,-4.75 v -6.63 l 1.988,-1.62 c 21.571,0 40.422,0 40.422,-30.97 V 940.793 c 0,-65.523 56.11,-85.516 113.02,-85.516 71.418,0 113.422,36.496 113.422,108.293 v 140.11 c 0,19.61 10.195,21.17 38.825,21.17"
         style="fill:#1d1b19;fill-opacity:1;fill-rule:nonzero;stroke:none"
         id="path30" />
      <g
         id="g32"
         transform="scale(10)" />
    </g>
  </g>
</svg>
